<?xml version="1.0" standalone="no"?>
<!DOCTYPE svg PUBLIC "-//W3C//DTD SVG 1.1//EN" "http://www.w3.org/Graphics/SVG/1.1/DTD/svg11.dtd" >
<!--
2013-9-30: Created.
-->
<svg>
<metadata>
Created by iconfont
</metadata>
<defs>

<font id="iconfont" horiz-adv-x="1024" >
  <font-face
    font-family="iconfont"
    font-weight="500"
    font-stretch="normal"
    units-per-em="1024"
    ascent="896"
    descent="-128"
  />
    <missing-glyph />
    
    <glyph glyph-name="x" unicode="x" horiz-adv-x="1001"
d="M281 543q-27 -1 -53 -1h-83q-18 0 -36.5 -6t-32.5 -18.5t-23 -32t-9 -45.5v-76h912v41q0 16 -0.5 30t-0.5 18q0 13 -5 29t-17 29.5t-31.5 22.5t-49.5 9h-133v-97h-438v97zM955 310v-52q0 -23 0.5 -52t0.5 -58t-10.5 -47.5t-26 -30t-33 -16t-31.5 -4.5q-14 -1 -29.5 -0.5
t-29.5 0.5h-32l-45 128h-439l-44 -128h-29h-34q-20 0 -45 1q-25 0 -41 9.5t-25.5 23t-13.5 29.5t-4 30v167h911zM163 247q-12 0 -21 -8.5t-9 -21.5t9 -21.5t21 -8.5q13 0 22 8.5t9 21.5t-9 21.5t-22 8.5zM316 123q-8 -26 -14 -48q-5 -19 -10.5 -37t-7.5 -25t-3 -15t1 -14.5
t9.5 -10.5t21.5 -4h37h67h81h80h64h36q23 0 34 12t2 38q-5 13 -9.5 30.5t-9.5 34.5q-5 19 -11 39h-368zM336 498v228q0 11 2.5 23t10 21.5t20.5 15.5t34 6h188q31 0 51.5 -14.5t20.5 -52.5v-227h-327z" />
    

    
    <glyph glyph-name="iconfontxiaolian1" unicode="&#58889;" d="M498.259556-147.469288c-123.201973 0-239.036141 47.663556-326.135872 134.164652C85.010651 73.298791 37.058522 188.385946 37.073872 310.840906c0 122.43961 47.986921 237.546208 135.118374 324.119959C259.289929 721.496753 375.123075 769.160309 498.345514 769.160309c123.250068 0 239.069911-47.663556 326.20648-134.200468 179.848111-178.743964 179.825598-469.506187 0-648.183635C737.400075-99.769916 621.516788-147.469288 498.259556-147.469288L498.259556-147.469288 498.259556-147.469288 498.259556-147.469288 498.259556-147.469288 498.259556-147.469288zM498.345514 709.42788c-107.179045 0-207.888747-41.433668-283.663548-116.699885-75.774801-75.249845-117.497041-175.384449-117.497041-281.887089-0.020466-106.513896 41.687448-206.632127 117.426433-281.912671 75.758428-75.232448 176.503946-116.716258 283.648199-116.716258 107.194394 0 207.994148 41.515532 283.782252 116.801193 156.38677 155.382906 156.38677 408.270521 0 563.714825C706.269054 667.994212 605.518419 709.42788 498.345514 709.42788L498.345514 709.42788 498.345514 709.42788 498.345514 709.42788 498.345514 709.42788 498.345514 709.42788zM334.420047 185.758096c0 0 54.047963-85.841064 163.825183-85.841064 109.775172 0 181.762717 85.841064 181.762717 85.841064s40.810474 0.130983 40.790008-42.914392c0 0-70.752414-100.147908-222.552725-100.147908-151.807475 0-201.214744 100.147908-201.214744 100.147908S295.531342 185.758096 334.420047 185.758096L334.420047 185.758096 334.420047 185.758096 334.420047 185.758096 334.420047 185.758096zM364.209514 458.219511c-31.097252 0-56.489572-25.139563-56.489572-56.135508 0-30.961152 25.37697-56.105832 56.489572-56.105832 31.252795 0 56.495712 25.14468 56.495712 56.105832C420.705226 433.078924 395.462309 458.219511 364.209514 458.219511L364.209514 458.219511 364.209514 458.219511 364.209514 458.219511 364.209514 458.219511 364.209514 458.219511zM653.646556 458.219511c-31.147394 0-56.453756-25.139563-56.453756-56.135508 0-30.961152 25.306362-56.105832 56.453756-56.105832 31.218002 0 56.489572 25.14468 56.489572 56.105832C710.136128 433.078924 684.864558 458.219511 653.646556 458.219511L653.646556 458.219511 653.646556 458.219511 653.646556 458.219511 653.646556 458.219511 653.646556 458.219511zM653.646556 458.219511"  horiz-adv-x="1024" />

    
    <glyph glyph-name="dingwei" unicode="&#58928;" d="M511.998-212l-19.096 19.618c-15.48 15.925-379.354 392.222-379.354 605.929C113.542 633.251 292.294 812 511.998 812c219.705 0 398.454-178.749 398.454-398.453 0-213.707-363.874-590.004-379.353-605.929L511.998-212zM511.998 758.712c-190.329 0-345.167-154.839-345.167-345.166 0-166.34 270.153-468.028 345.167-548.587 75.016 80.555 345.169 382.247 345.169 548.587C857.165 603.875 702.325 758.712 511.998 758.712zM511.998 230.633c-103.814 0-188.298 84.47-188.298 188.298 0 103.829 84.481 188.304 188.298 188.304 103.818 0 188.275-84.474 188.275-188.302C700.273 315.104 615.815 230.633 511.998 230.633zM511.998 553.945c-74.439 0-135.011-60.572-135.011-135.012 0-74.438 60.571-135.011 135.011-135.011 74.442 0 134.987 60.573 134.987 135.012C646.985 493.373 586.438 553.945 511.998 553.945z"  horiz-adv-x="1024" />

    
    <glyph glyph-name="weibiaoti1" unicode="&#58880;" d="M316.697971-109.540638l-63.517681 0L253.18029 274.741333c-19.055304-19.055304-48.736464-29.681159-88.924754-31.758841-8.488812-2.151884-11.664696-2.151884-9.527652 0-2.137043 2.077681 1.038841 6.351768 9.527652 12.688696 23.270029 14.781217 45.501217 53.990029 66.693565 117.50771 2.077681 10.566493 27.484754 102.66713 76.221217 276.287072l66.693565 0c-8.488812-29.666319-23.314551-80.480464-44.462377-152.427594-12.703536-46.59942-24.368232-91.061797-34.934725-133.38713l22.231188 0L316.697971-109.540638zM465.949681 319.20371l60.341797 0c-23.329391-29.681159-47.638261-57.180754-73.045333-82.572986s-62.478841-34.934725-111.155942-28.582957c-10.625855 0-11.664696 2.092522-3.175884 6.351768C372.765681 227.103072 415.150377 262.022957 465.949681 319.20371zM516.763826 271.565449l63.517681 0c-4.274087-8.488812-8.488812-15.87942-12.703536-22.231188-6.351768-8.488812-15.87942-25.407072-28.582957-50.814145 19.055304 19.055304 43.364174 28.582957 73.045333 28.582957L770.81971 227.103072c42.340174-2.137043 70.90829-13.801739 85.74887-34.934725 12.688696-23.329391 7.390609-46.614261-15.87942-69.869449-21.192348-16.977623-67.776928-49.775304-139.738899-98.452406 114.331826-67.732406 189.454841-106.881855 225.472928-117.50771 10.581333-2.092522 15.87942-5.253565 15.87942-9.527652 0-2.092522-4.259246-4.229565-12.688696-6.366609-67.791768-4.214725-112.239304 2.137043-133.38713 19.055304-14.84058 10.625855-38.110609 25.407072-69.869449 44.462377-31.758841 19.055304-55.073391 32.797681-69.869449 41.286493-14.84058-8.488812-36.018087-20.094145-63.517681-34.934725-29.681159-14.781217-50.814145-27.499594-63.517681-38.095768-25.407072-12.703536-48.736464-21.147826-69.869449-25.407072-16.977623-4.229565-49.775304-5.253565-98.452406-3.190725-8.488812 2.151884-12.703536 4.274087-12.703536 6.366609 0 2.137043 3.175884 4.259246 9.527652 6.351768 74.084174 25.407072 157.696 66.693565 250.88 123.859478-16.977623 8.429449-38.110609 22.231188-63.517681 41.286493-29.681159 21.132986-49.775304 35.973565-60.341797 44.447536-2.137043-4.259246-5.298087-8.473971-9.527652-12.688696l-3.175884 0c-23.314551-31.758841-59.302957-46.59942-107.965217-44.462377-6.351768 0-10.625855 1.038841-12.703536 3.175884 0 2.092522 3.175884 4.214725 9.527652 6.351768C401.348638 85.22713 453.260986 152.974377 516.763826 271.565449zM589.809159 649.480812l57.165913 0c-8.488812-23.314551-16.962783-40.247652-25.407072-50.814145-10.611014-12.703536-20.138667-21.192348-28.582957-25.407072l181.025391 0c95.261681 0 141.81658-27.529275 139.738899-82.558145l0-76.221217c4.214725-57.180754-42.369855-83.671188-139.738899-79.411942L542.170899 335.06829c-50.814145-4.259246-78.358261 11.605333-82.572986 47.638261l0-53.990029-66.693565 0L392.904348 573.259594l66.693565 0 0-47.638261c6.351768 27.499594 29.621797 43.379014 69.869449 47.638261l3.175884 0C553.776232 585.96313 572.846377 611.370203 589.809159 649.480812zM535.81913 551.028406c-40.232812 0-65.639884-11.664696-76.221217-34.934725l0-127.050203c10.566493-23.314551 37.027246-33.881043 79.397101-31.758841L770.81971 357.284638c52.891826 0 79.411942 17.971942 79.411942 53.990029l0 82.572986c2.092522 38.095768-24.383072 57.165913-79.411942 57.165913L535.81913 551.013565zM732.723942 535.148986l69.869449 0c-27.529275-23.314551-64.601043-49.775304-111.141101-79.397101 44.462377-27.529275 84.650667-44.462377 120.683594-50.814145 10.566493-4.259246 15.87942-7.43513 15.87942-9.527652 0-4.274087-5.312928-6.366609-15.87942-6.366609-55.073391-10.611014-97.398725-4.259246-127.035362 19.055304-4.274087 0-8.488812 2.092522-12.703536 6.366609-8.473971 4.214725-15.87942 9.527652-22.231188 15.86458-10.625855-10.625855-20.138667-16.977623-28.582957-19.055304-33.895884-25.407072-76.221217-31.758841-127.035362-19.040464-12.703536 0-19.055304 2.077681-19.055304 6.351768 0 2.092522 6.351768 5.253565 19.055304 9.527652 31.758841 4.214725 69.869449 21.147826 114.331826 50.814145-29.681159 16.933101-64.601043 41.286493-104.804174 73.045333l66.693565 0c8.429449-8.473971 22.231188-19.040464 41.286493-31.758841 14.781217-8.473971 26.445913-14.84058 34.934725-19.055304 4.214725 2.092522 11.620174 6.351768 22.231188 12.703536C679.772754 500.214261 700.965101 513.956638 732.723942 535.148986zM767.658667 201.696 612.040348 201.696c-36.032928-2.137043-63.517681-7.449971-82.572986-15.87942-8.488812-14.825739-16.977623-27.529275-25.407072-38.095768-6.351768-10.625855-11.664696-19.055304-15.87942-25.407072l73.030493 0c4.229565-6.366609 12.703536-13.801739 25.407072-22.231188 12.703536-8.488812 34.934725-22.231188 66.693565-41.286493 23.270029 14.781217 61.380638 42.340174 114.331826 82.558145 6.351768 2.092522 12.703536 6.366609 19.055304 12.703536 14.781217 10.566493 21.147826 21.147826 19.055304 31.758841C801.495188 194.246029 788.791652 199.558957 767.658667 201.696zM754.95513 319.20371l63.517681 0c48.677101-57.180754 91.017275-92.100638 127.050203-104.819014 4.199884-4.259246 3.161043-6.351768-3.190725-6.351768-52.936348-6.351768-89.993275 3.175884-111.155942 28.582957C818.457971 245.060174 793.050899 272.60429 754.95513 319.20371zM989.95571 506.566029l60.326957 0 0-44.462377c14.796058 27.499594 33.851362 42.340174 57.180754 44.462377l206.417623 0c65.595362-2.137043 99.491246-36.018087 101.62829-101.62829l0-50.814145c-2.137043-63.517681-27.529275-98.452406-76.206377-104.804174 52.876986-2.137043 78.284058-39.208812 76.206377-111.155942l0-53.990029c-2.137043-67.776928-36.032928-101.62829-101.62829-101.62829L1113.815188-17.454841c-31.758841 0-52.936348 12.703536-63.517681 38.110609l0-38.110609-60.326957 0L989.970551 506.566029zM1050.282667 258.861913l279.477797 0c16.933101-2.137043 25.407072 9.542493 25.407072 34.934725L1355.167536 446.239072c0 25.407072-8.473971 38.095768-25.407072 38.095768L1097.935768 484.334841c-29.681159-4.259246-45.56058-20.138667-47.653101-47.638261L1050.282667 258.861913zM1104.287536 4.791188l219.136 0c19.040464-2.137043 29.621797 9.527652 31.758841 34.934725L1355.182377 201.696c0 23.270029-8.473971 34.934725-25.407072 34.934725L1050.282667 236.630725l0-181.010551C1050.282667 21.709449 1068.254609 4.791188 1104.287536 4.791188z"  horiz-adv-x="1574" />

    
    <glyph glyph-name="computer" unicode="&#58904;" d="M844.004 653.268h-666.622c-61.351 0-111.088-49.737-111.088-111.088v-333.309c0-61.376 49.737-111.112 111.088-111.112h305.545v-111.089l-138.878 0c-15.337 0-27.791-12.452-27.791-27.789s12.454-27.765 27.791-27.765h333.287c15.336 0 27.789 12.428 27.789 27.765s-12.453 27.789-27.789 27.789h-138.877v111.090h305.545c61.35 0 111.087 49.737 111.087 111.112l-0 333.308c0 61.352-49.737 111.088-111.087 111.088zM899.559 208.872c0-30.676-24.88-55.555-55.555-55.555l-666.622 0c-30.676 0-55.555 24.88-55.555 55.555l0 333.308c0 30.676 24.88 55.532 55.555 55.532h666.622c30.676 0 55.555-24.856 55.555-55.532l-0-333.308z"  horiz-adv-x="1024" />

    
    <glyph glyph-name="zichanzhongxin" unicode="&#58885;" d="M896 556l-44.8 0L768 556l-64 0L627.2 556 128 556C108.8 556 89.6 549.6 70.4 543.2c12.8 32 38.4 57.6 70.4 64l512 134.4c6.4 0 12.8 0 19.2 0C697.6 748 704 728.8 704 716L704 620l64 0L768 716C768 773.6 729.6 812 672 812c-12.8 0-19.2 0-32-6.4L128 671.2C57.6 652 0 581.6 0 511.2L0 428l0-428.8L0-84c0-70.4 57.6-128 128-128l768 0c70.4 0 128 57.6 128 128L1024 428C1024 498.4 966.4 556 896 556zM960-84c0-38.4-25.6-64-64-64L128-148c-32 0-57.6 19.2-64 51.2 0 6.4 0 6.4 0 12.8l0 83.2L64 428c0 38.4 25.6 64 64 64l576 0 64 0 128 0c38.4 0 64-25.6 64-64L960-84zM832 172m-64 0a1 1 0 1 0 128 0 1 1 0 1 0-128 0Z"  horiz-adv-x="1024" />

    
    <glyph glyph-name="qqkongjian" unicode="&#59407;" d="M1023.210667 500.309333c-2.005333 6.08-7.381333 10.410667-13.781333 10.944l-347.114667 29.802667L526.634667 862.016C524.117333 867.904 518.4 871.744 512 871.744s-12.181333-3.861333-14.677333-9.749333l-135.616-320.938667L14.570667 511.253333c-6.357333-0.533333-11.797333-4.864-13.781333-10.944-1.941333-6.101333-0.106667-12.778667 4.714667-16.96l263.338667-228.138667L189.888-84.16c-1.429333-6.208 1.002667-12.757333 6.122667-16.512 5.205333-3.733333 12.117333-4.010667 17.642667-0.682667L512 78.549333l298.282667-179.946667c2.581333-1.557333 5.418667-2.346667 8.32-2.346667 3.221333 0 6.528 1.002667 9.344 3.008 5.162667 3.84 7.594667 10.368 6.122667 16.576l-62.442667 268.352c26.730667 13.482667 56.277333 36.245333 56.277333 36.245333s-116.864-57.066667-536.341333-29.205333L595.626667 411.562667c0 0-11.968 18.581333-392.981333 31.872-25.408 0.917333 310.677333 63.722667 558.933333 10.645333L456.298667 235.093333c0 0 122.453333-18.197333 307.328-16.085333l-8.448 36.181333 263.36 228.16C1023.381333 487.530667 1025.216 494.208 1023.210667 500.309333z"  horiz-adv-x="1025" />

    
    <glyph glyph-name="cart" unicode="&#58952;" d="M330.563 22.274c-40.094 0-72.571-32.479-72.571-72.575 0-40.093 32.478-72.57 72.571-72.57 40.096 0 72.57 32.478 72.57 72.57 0 40.097-32.473 72.575-72.57 72.575v0 0zM838.56 22.274c-40.096 0-72.577-32.479-72.577-72.575 0-40.093 32.479-72.57 72.577-72.57 40.091 0 72.57 32.478 72.57 72.57 0 40.097-32.479 72.575-72.57 72.575v0 0zM910.547 58.556h-589.38c-52.29 0-98.262 41.364-104.65 94.162l-61.54 433.249-35.015 202.474c-2.178 17.666-18.289 32.113-34.034 32.113h-46.224c-20.033 0-36.288 16.255-36.288 36.281 0 20.032 16.255 36.288 36.288 36.288h46.224c52.942 0 99.423-41.365 105.846-94.163l34.941-201.708 61.796-435.098c2.031-16.838 17.268-31.027 32.655-31.027h589.381c20.066 0 36.287-16.218 36.287-36.282-0.001-20.067-16.223-36.288-36.288-36.288v0zM366.524 203.701c-18.83 0-34.761 14.511-36.143 33.635-1.485 19.993 13.535 37.374 33.49 38.823l492.253 36.289c18.067 0.105 33.308 14.295 35.301 30.441l57.15 327.003c1.451 12.191-1.919 25.546-9.212 33.819-4.684 5.297-10.564 7.984-17.42 7.984h-628.245c-20.032 0-36.287 16.255-36.287 36.288 0 20.025 16.255 36.281 36.287 36.281h628.244c27.722 0 53.191-11.5 71.733-32.439 21.194-23.914 30.917-57.619 26.671-92.562l-57.184-327.043c-6.167-50.873-52.107-92.238-104.396-92.238l-489.562-36.176c-0.906-0.071-1.813-0.106-2.683-0.106v0zM366.524 203.701z"  horiz-adv-x="1024" />

    
    <glyph glyph-name="dingdan" unicode="&#59010;" d="M841.308633 830.475658 182.690344 830.475658c-31.082926 0-56.281841-25.197892-56.281841-56.281841l0-780.38661c0-31.083949 25.198915-56.281841 56.281841-56.281841l658.619312 0c31.082926 0 56.281841 25.197892 56.281841 56.281841L897.591497 774.193817C897.590474 805.277766 872.391559 830.475658 841.308633 830.475658zM838.691015 35.309436c0-21.476127-17.409508-38.885636-38.885636-38.885636L224.192573-3.576199c-21.476127 0-38.885636 17.409508-38.885636 38.885636L185.306938 732.690564c0 21.476127 17.409508 38.885636 38.885636 38.885636l575.611783 0c21.476127 0 38.885636-17.409508 38.885636-38.885636L838.689992 35.309436zM267.825326 618.82012l82.455967 0 0-58.899458-82.455967 0 0 58.899458ZM411.088194 618.82012l345.084433 0 0-58.899458-345.084433 0 0 58.899458ZM267.825326 413.449729l82.455967 0 0-58.899458-82.455967 0 0 58.899458ZM411.088194 413.449729l345.084433 0 0-58.899458-345.084433 0 0 58.899458ZM267.825326 208.788489l82.455967 0 0-58.899458-82.455967 0 0 58.899458ZM411.088194 208.788489l243.61339 0 0-58.899458-243.61339 0 0 58.899458Z"  horiz-adv-x="1024" />

    
    <glyph glyph-name="xunhuan" unicode="&#58924;" d="M740.557-12.452l160.625-17.572c18.063-1.925 31.171-18.33 29.184-36.454-1.843-16.814-16.138-29.409-32.727-29.409-1.29 0-2.335 0.082-3.625 0.205l-231.055 25.313c-8.724 1.004-16.65 5.325-22.098 12.206-5.55 6.779-8.028 15.503-7.168 24.248l25.272 231.424c1.987 18.125 18.207 31.252 36.352 29.266 18.145-1.987 31.109-18.35 29.204-36.516l-15.954-145.162c123.72 68.239 207.79 199.823 207.79 351.293 0 221.655-179.507 401.49-400.835 401.49-2.089 0-3.973-0.287-6.042-0.287l0 0.696c-16.077 2.109-28.631 15.79-28.631 32.584 0 16.507 12.124 30.024 27.914 32.44v0.225c1.126 0 2.191 0.061 3.154 0.143 0.655 0 1.229 0.225 1.864 0.225 0.205 0 0.43-0.082 0.553-0.082 0.43 0.082 0.84 0.082 1.29 0.082 257.29 0 466.678-209.674 466.678-467.456 0.020-176.026-97.792-329.236-241.746-408.904v0 0zM515.195-95.396v-0.123c-1.126 0-2.109-0.184-3.154-0.184-0.655 0-1.229-0.205-1.843-0.205-0.225 0-0.389 0.082-0.553 0.082-0.43 0-0.86-0.082-1.29-0.082-257.352 0-466.657 209.756-466.657 467.476 0 176.005 97.833 329.196 241.705 408.842l-160.563 17.633c-18.104 1.987-31.191 18.289-29.307 36.434 1.843 16.876 16.159 29.43 32.748 29.43 1.208 0 2.396-0.082 3.625-0.225l230.994-25.293c8.786-0.983 16.712-5.386 22.159-12.186 5.55-6.881 8.028-15.606 7.107-24.33l-25.293-231.342c-1.987-18.145-18.207-31.232-36.352-29.266-18.125 2.048-31.109 18.35-29.102 36.413l15.852 145.244c-123.72-68.28-207.688-199.782-207.688-351.293 0-221.696 179.405-401.551 400.753-401.551 2.048 0 3.973 0.348 6.021 0.43v-0.819c16.241-2.109 28.692-15.852 28.692-32.563 0.020-16.445-12.083-29.942-27.853-32.522v0 0zM515.195-95.396z"  horiz-adv-x="1024" />

    
    <glyph glyph-name="iconfontweixin" unicode="&#58933;" d="M693.12 548.736c11.776 0 23.36-0.896 35.008-2.176-31.36 146.048-187.456 254.528-365.696 254.528C163.2 801.088 0 665.344 0 492.864c0-99.52 54.272-181.248 145.024-244.736L108.8 139.136l126.72 63.488c45.312-8.896 81.664-18.112 126.912-18.112 11.392 0 22.656 0.512 33.792 1.344-7.04 24.256-11.2 49.6-11.2 76.032C385.088 420.224 521.024 548.736 693.12 548.736zM498.304 646.976c27.392 0 45.376-17.984 45.376-45.248 0-27.136-17.984-45.312-45.376-45.312-27.072 0-54.336 18.176-54.336 45.312C443.968 629.056 471.168 646.976 498.304 646.976zM244.672 556.416c-27.2 0-54.592 18.176-54.592 45.312 0 27.264 27.392 45.248 54.592 45.248S289.92 629.056 289.92 601.728C289.92 574.592 271.872 556.416 244.672 556.416zM1024 266.24c0 144.896-145.024 262.976-307.904 262.976-172.48 0-308.224-118.144-308.224-262.976 0-145.28 135.808-262.976 308.224-262.976 36.096 0 72.512 9.024 108.736 18.112l99.392-54.528-27.264 90.624C969.728 112.128 1024 184.512 1024 266.24zM616.128 311.616c-17.984 0-36.224 17.92-36.224 36.224 0 18.048 18.24 36.224 36.224 36.224 27.52 0 45.376-18.176 45.376-36.224C661.504 329.536 643.648 311.616 616.128 311.616zM815.488 311.616c-17.856 0-36.032 17.92-36.032 36.224 0 18.048 18.112 36.224 36.032 36.224 27.264 0 45.376-18.176 45.376-36.224C860.864 329.536 842.752 311.616 815.488 311.616z"  horiz-adv-x="1024" />

    
    <glyph glyph-name="fangzi1" unicode="&#59011;" d="M518.00064 888.8832c-5.30432 0-10.624-5.30432-13.28128-7.96672l-425.0624-491.47904C74.35264 384.12288 71.68 378.81856 71.68 370.8416c0-5.30944 2.67264-13.2864 7.97696-18.59072 5.30432-5.31968 13.28128-5.31968 18.5856-5.31968l53.13536 0 0-355.98848c0-69.07392 37.20192-106.2656 106.2656-106.2656L783.6672-115.32288c71.72096 0 106.2656 37.19168 106.2656 106.2656l0 353.32608 55.78752 0c5.31968 0 13.2864 2.6624 18.60096 5.31968 5.30432 5.31968 7.96672 10.624 7.96672 18.60096 0 5.30432-2.6624 13.28128-7.96672 18.59072L544.56832 880.9216c-5.30944 2.6624-10.624 7.96672-13.2864 7.96672C525.9776 891.5456 520.66304 891.5456 518.00064 888.8832zM887.2704 397.40928l-15.92832 0-2.67264 0c-2.64704 0-2.64704 0-5.30432 0-5.30432 0-13.28128-2.64704-18.5856-10.624-5.31968-2.6624-7.97696-10.624-7.97696-15.94368l0-379.89376c0-34.52928-15.94368-53.13024-53.13536-53.13024L257.64352-62.1824c-34.5344 0-53.13024 18.60096-53.13024 53.13024l0 382.55104c0 5.31968-2.64704 13.2864-7.96672 18.60096-5.31968 5.30432-10.624 7.96672-18.60096 7.96672l-21.248 0 366.61248 422.4L887.2704 397.40928z"  horiz-adv-x="1024" />

    
    <glyph glyph-name="shunfengmendian01" unicode="&#58891;" d="M821.207843 735.372549C726.839216 795.607843 620.423529 825.72549 509.992157 825.72549 399.560784 825.72549 291.137255 795.607843 198.776471 735.372549l-40.156863 28.109804c104.407843 70.27451 224.878431 108.423529 351.372549 108.423529 126.494118 0 246.964706-38.14902 351.372549-108.423529L821.207843 735.372549zM865.380392 72.784314c60.235294 92.360784 92.360784 198.776471 92.360784 309.207843 2.007843 110.431373-28.109804 218.854902-86.337255 311.215686l28.109804 40.156863c70.27451-104.407843 104.407843-226.886275 104.407843-351.372549-2.007843-126.494118-40.156863-246.964706-110.431373-349.364706L865.380392 72.784314zM200.784314 22.588235c92.360784-58.227451 198.776471-90.352941 309.207843-90.352941 110.431373 0 218.854902 30.117647 311.215686 88.345098l40.156863-28.109804c-104.407843-70.27451-224.878431-106.415686-351.372549-106.415686-126.494118 0-246.964706 38.14902-351.372549 108.423529L200.784314 22.588235zM156.611765 691.2c-60.235294-92.360784-92.360784-198.776471-94.368627-309.207843C60.235294 271.560784 90.352941 165.145098 146.572549 70.776471l-28.109804-40.156863c-68.266667 104.407843-104.407843 226.886275-102.4 351.372549 2.007843 126.494118 40.156863 246.964706 112.439216 349.364706L156.611765 691.2zM453.772549 518.52549c-34.133333 18.070588-120.470588 56.219608-174.682353 10.039216-18.070588-14.054902-30.117647-44.172549-20.078431-66.258824 10.039216-22.086275 44.172549-40.156863 70.27451-54.211765l10.039216-6.023529c36.141176-20.078431 72.282353-40.156863 100.392157-74.290196 22.086275-28.109804 30.117647-64.25098 22.086275-100.392157-8.031373-34.133333-30.117647-62.243137-60.235294-78.305882-20.078431-10.039216-42.164706-14.054902-66.258824-14.054902-14.054902 0-30.117647 2.007843-46.180392 6.023529-28.109804 8.031373-56.219608 20.078431-84.329412 36.141176L202.792157 233.411765c30.117647-22.086275 66.258824-40.156863 96.376471-48.188235 30.117647-8.031373 58.227451-6.023529 80.313725 6.023529 20.078431 10.039216 32.12549 26.101961 38.14902 48.188235 4.015686 22.086275 0 44.172549-14.054902 62.243137-20.078431 26.101961-52.203922 44.172549-84.329412 62.243137l-12.047059 6.023529c-30.117647 16.062745-72.282353 40.156863-88.345098 74.290196-20.078431 44.172549 2.007843 94.368627 32.12549 118.462745 64.25098 54.211765 150.588235 28.109804 200.784314 6.023529 0 0 2.007843 0 2.007843 0L453.772549 518.52549zM809.160784 520.533333c-4.015686 2.007843-86.337255 52.203922-206.807843 4.015686l0-401.568627-44.172549 0L558.180392 554.666667l14.054902 6.023529c110.431373 50.196078 198.776471 28.109804 238.933333 10.039216L809.160784 520.533333zM724.831373 363.921569m-30.117647 0a1.5 1.5 0 1 0 60.235294 0 1.5 1.5 0 1 0-60.235294 0Z"  horiz-adv-x="1024" />

    
    <glyph glyph-name="banshou" unicode="&#59081;" d="M984.006182 693.654096l-19.55426-19.543015-0.181967 0.180944L848.191583 558.213653l-0.262727 0.25046c-20.971146-20.926166-49.911001-33.871356-81.876819-33.871356-64.047153 0-115.963877 51.940236-115.963877 115.988411 0 31.967862 12.944168 60.894427 33.857044 81.867618l-32.850094 32.850094c-29.404994-29.358992-47.666064-69.851685-47.666064-114.717712 0-89.824059 72.809154-162.646503 162.624013-162.646503 44.878294 0 85.368943 18.275382 114.741224 47.680376l0.224903-0.25046 86.335002 86.355448c17.45551-64.182094 9.181138-125.759408-29.393749-165.230839L813.526934 319.119685c-16.436292-16.799203-40.490649-26.842127-64.205607-26.842127-0.951747 0.020446-79.543965 5.395618-158.010442 54.614533l-0.204457-0.452872c-3.582085 2.265383-7.59353 3.943974-12.163142 3.943974-7.867502 0-14.486795-4.171943-18.681229-10.17991l-0.826006 0.476385L204.963974-51.922602c-16.810448-16.799203-40.026531-27.18357-65.667474-27.18357-51.28393 0-92.863311 41.555869-92.863311 92.863311 0 25.641965 10.395612 48.857026 27.194815 65.656229l391.253876 353.06439-0.668574 0.703332c6.042724 4.195456 10.258626 10.860752 10.258626 18.772212 0 5.032707-1.938252 9.43262-4.648328 13.217118l0.102228 0.136986c-67.197834 89.280204-69.568512 155.663277-11.675512 218.441775l124.013346 126.892099c31.445474 32.170274 72.537227 38.928598 101.499572 38.928598l0.069515 0c17.557738 0 35.626619-2.609893 53.777282-7.278666l-86.753116-86.742893 32.826581-32.826581L799.763916 838.799087l-0.180944 0.180944 20.392533 20.381288C774.735322 883.279713 727.714319 896 683.833775 896l-0.069515 0c-51.713289 0-98.993952-17.095665-133.637133-52.553607L425.671132 716.099377c-81.854328-88.328457-60.203363-178.765887-4.714777-260.609992L40.809601 112.241994c-25.209538-25.209538-40.808579-60.033664-40.808579-98.485877 0-76.948385 62.368562-139.294456 139.294456-139.294456 38.472659 0 73.284517 15.575528 98.497122 40.785067l345.955423 382.379423c78.717959-44.344662 153.71378-51.78076 165.391337-51.78076 33.960295 0 70.12259 13.465533 96.512867 40.467136l124.43146 127.370528C1034.948668 480.065107 1036.863407 591.790591 984.006182 693.654096zM122.882699 30.169919c-4.206701-4.192389-6.802282-10.020434-6.802282-16.413802 0-12.831716 10.395612-23.216083 23.216083-23.216083 12.819449 0 23.216083 10.384367 23.216083 23.216083 0 12.810248-10.396634 23.216083-23.216083 23.216083C132.890865 36.972201 127.086333 34.365375 122.882699 30.169919z"  horiz-adv-x="1025" />

    
    <glyph glyph-name="fanhui" unicode="&#59094;" d="M638.2 623.5H400.5V741c0 12.1-12.9 19.9-23.6 14.3l-304-158.9c-11.7-6.1-11.5-22.8 0.3-28.7l304-151.9c10.7-5.4 23.3 2.4 23.3 14.4V548.3h237.8c135.4 0 245.5-103.6 245.5-231s-110.1-231-245.5-231h-489c-20.8 0-37.6-16.8-37.6-37.6s16.8-37.6 37.6-37.6h489c176.8 0 320.6 137.3 320.6 306.2 0 168.8-143.9 306.2-320.7 306.2z"  horiz-adv-x="1024" />

    
    <glyph glyph-name="shandian" unicode="&#58983;" d="M584.763392 775.88992h0.879616m-0.879616 0l-63.121408-332.269568 229.700608-0.879616-312.105984-450.63168 63.121408 365.585408-229.700608 0.879616 312.105984 417.31584z m0 56.11008h-4.380672c-12.27264-1.75104-24.544256-7.011328-35.946496-20.163584l-2.630656-3.501056-314.73664-415.563776c-13.152256-18.413568-14.903296-38.577152-4.389888-58.740736 9.6512-18.413568 28.935168-30.685184 49.978368-30.685184l162.189312-0.879616-51.720192-300.713984c-4.389888-25.424896 9.641984-50.848768 33.306624-61.370368 7.020544-3.510272 14.911488-4.380672 22.803456-4.380672 16.653312 0 31.556608 7.890944 42.957824 22.79424l314.73664 450.630656c13.152256 18.412544 14.903296 38.577152 4.389888 58.740736-10.5216 20.163584-27.184128 30.685184-49.978368 30.685184H589.15328l50.848768 263.896064c0.8704 4.380672 1.75104 8.762368 1.75104 13.14304 0 30.685184-25.424896 56.11008-54.35904 56.11008h-2.630656z"  horiz-adv-x="1024" />

    
    <glyph glyph-name="fangdajing" unicode="&#59007;" d="M954.368-58.368c-11.264-11.264-29.696-11.264-40.96 0L679.936 171.008c-65.536-52.224-148.48-82.944-238.592-82.944-208.896 0-378.88 166.912-378.88 372.736 0 205.824 169.984 372.736 378.88 372.736s378.88-166.912 378.88-372.736c0-96.256-37.888-183.296-98.304-249.856l232.448-228.352c11.264-11.264 11.264-29.696 0-40.96zM441.344 776.192c-177.152 0-320.512-141.312-320.512-315.392s143.36-315.392 320.512-315.392 320.512 141.312 320.512 315.392-143.36 315.392-320.512 315.392z"  horiz-adv-x="1024" />

    
    <glyph glyph-name="dunpai" unicode="&#58959;" d="M512 853.333333L128 682.666667v-256c0-234.666667 162.133333-456.533333 384-512 221.866667 55.466667 384 277.333333 384 512V682.666667l-384 170.666666z m0-849.066666V384H213.333333V627.2l298.666667 132.266667V384h298.666667c-21.333333-174.933333-140.8-332.8-298.666667-379.733333z"  horiz-adv-x="1024" />

    
    <glyph glyph-name="weibo" unicode="&#59041;" d="M369.78 341.681c-88.733-12.255-152.475-80.925-142.491-153.307 10.016-72.382 90.045-121.148 178.778-108.892 88.67 12.255 152.508 80.925 142.492 153.37-9.984 72.382-90.045 121.117-178.779 108.83z m-25.887-204.505c-31.199-4.32-59.294 12.8-62.846 38.27-3.488 25.408 18.912 49.535 50.11 53.887 31.168 4.288 59.295-12.832 62.847-38.303 3.488-25.44-18.944-49.534-50.11-53.854z m79.55 81.885c-13.088-3.328-25.92 2.656-28.575 13.344-2.72 10.687 5.695 22.015 18.783 25.31 13.088 3.297 25.855-2.655 28.575-13.343 2.752-10.687-5.76-22.047-18.783-25.31zM830.374 461.71a36.34 36.34 0 0 1 14.176-2.88c14.175 0 27.71 8.351 33.599 22.271 6.783 16 10.207 33.055 10.207 50.59 0 71.646-58.27 129.948-129.916 129.948-17.503 0-34.527-3.424-50.59-10.207-18.56-7.872-27.231-29.28-19.392-47.807 7.872-18.56 29.28-27.263 47.839-19.423a56.895 56.895 0 0 0 22.143 4.448c31.391 0 56.959-25.536 56.959-56.959 0-7.743-1.472-15.2-4.416-22.175-7.872-18.527 0.832-39.967 19.391-47.806z m-84.957-53.79c3.584 10.27 7.135 20.415 7.135 20.415 63.87 122.588-100.796 162.555-195.225 110.46-94.397-52.158-48.83 36.095-48.83 36.095 15.615 161.179-153.82 89.853-153.82 89.853C-38.815 444.078 1.152 225.397 1.152 225.397c0-120.348 188.666-254.744 426.61-254.744 315.223 0 494.961 184.282 463.73 321.238-12.64 55.294-78.301 102.685-146.075 116.028zM380.884 33.242c-206.393 0-276.215 107.357-276.215 184.954 0 122.94 162.875 213.754 316.214 213.754 153.307 0 262.584-65.15 287.607-150.588 37.055-126.428-124.54-248.12-327.606-248.12zM758.44 797.315c-22.495 0-44.926-2.848-66.558-8.448-19.487-5.023-31.23-24.927-26.207-44.446 5.088-19.488 24.96-31.231 44.447-26.207 15.68 4.095 31.935 6.111 48.35 6.111 106.173 0 192.602-86.429 192.602-192.602 0-22.783-3.968-45.054-11.647-66.142-6.912-18.911 2.816-39.902 21.727-46.782 4.128-1.504 8.352-2.24 12.512-2.24 14.88 0 28.895 9.216 34.27 24 10.624 29.15 16.064 59.837 16.064 91.196-0.032 146.396-119.132 265.56-265.56 265.56z"  horiz-adv-x="1024" />

    
    <glyph glyph-name="yonghu" unicode="&#58882;" d="M879.542857 380.342857m-495.542857 0a495.542857 495.542857 0 1 1 991.085714 0 495.542857 495.542857 0 1 1-991.085714 0ZM876.829257-65.943771C627.823543-65.943771 426.057143 135.848229 426.057143 384.853943c0 248.950857 201.7664 450.797714 450.772114 450.797714 248.950857 0 450.797714-201.846857 450.797714-450.797714 0-249.005714-201.846857-450.797714-450.797714-450.797714z m98.832457 288.517485l18.020572 15.791543s4.542171 41.327543 12.381257 56.323657c17.554286 33.649371 36.0448 90.165029 36.0448 90.165029s18.024229 13.096229 18.024228 36.0448c0 22.919314-18.024229 36.099657-18.024228 36.099657s6.7968 63.8336 6.7968 108.1856c0 93.163886-58.496 144.257829-163.655314 144.257829-105.051429 0-181.761829-43.4176-181.761829-144.257829 0-44.352 14.087314-108.1856 14.087314-108.1856s-18.079086-13.178514-18.079085-36.099657c0-22.946743 18.079086-36.0448 18.079085-36.0448s21.021257-65.428114 36.0448-90.165029c8.775314-14.443886 12.406857-56.323657 12.406857-56.323657l18.024229-15.791543s8.530286-91.457829-18.024229-108.1856c-23.992686-15.105829-126.537143-35.053714-151.466057-49.636571 1.5104-1.568914 111.158857-96.107886 265.429943-96.107886 154.276571 0 264.170057 94.897371 264.170057 96.658286-26.634971 14.500571-126.787657 34.172343-150.478628 49.086171-26.580114 16.727771-18.020571 108.1856-18.020572 108.1856z"  horiz-adv-x="1755" />

    
    <glyph glyph-name="geren" unicode="&#59068;" d="M954.50858-126.402496c1.597504 14.377535 1.597504 28.75507 1.597504 44.730109 0 246.015601-199.687988 444.106084-444.106084 444.106084S67.893916 164.343214 67.893916-81.672387c0-14.377535 0-30.352574 1.597504-44.730109H24.76131c-1.597504 14.377535-1.597504 28.75507-1.597503 44.730109 0 228.443058 158.152886 420.143526 370.620904 474.458658-87.862715 43.132605-146.970359 132.592824-146.970358 238.028082C245.216849 776.187207 365.029641 896 512 896s266.783151-119.812793 266.783151-266.783151c0-103.837754-60.705148-193.297972-146.970358-238.028081 212.468019-52.717629 370.620905-244.418097 370.620904-474.458659 0-14.377535-1.597504-30.352574-1.597504-44.730109h-46.327613zM734.053042 629.216849C734.053042 752.224649 635.0078 851.269891 512 851.269891S289.946958 752.224649 289.946958 629.216849 388.9922 407.163807 512 407.163807s222.053042 99.045242 222.053042 222.053042z"  horiz-adv-x="1024" />

    
    <glyph glyph-name="meizu" unicode="&#59799;" d="M3028.769582 895.974401h217.516137v-1023.949534h-217.516137V895.974401zM1331.134394 895.974401H176.558155A173.632585 173.632585 0 0 1 0 725.340525V-127.975133h207.496059V660.977983a69.555429 69.555429 0 0 0 70.652518 68.312062h371.839959V-127.975133h207.496059V729.216906h371.83996a69.555429 69.555429 0 0 0 70.652518-68.312062V-127.975133h207.496059V725.340525A173.632585 173.632585 0 0 1 1331.134394 895.974401z m604.715339-788.879976V300.547747H2761.738171V467.451521H1935.630315V660.977983a69.555429 69.555429 0 0 0 70.652518 68.312062h798.753776V895.974401h-900.344197a173.632585 173.632585 0 0 1-176.558156-170.633876v-682.608642A173.705725 173.705725 0 0 1 1904.765551-127.975133h900.271058v166.757496H2006.282833a69.555429 69.555429 0 0 0-70.652518 68.312062zM4405.250313 895.974401h-928.868506v-166.684356h768.9861L3507.758546 96.123537c-118.266171-97.78718-41.323678-224.02553 56.902339-224.02553h939.693115V38.782363h-784.052786l738.706449 633.166508C4578.224645 775.587192 4506.475038 895.974401 4405.46973 895.974401z m1238.393822 0v-788.953116a69.48229 69.48229 0 0 0-70.652518-68.238922h-592.793641a69.48229 69.48229 0 0 0-70.579379 68.238922V895.974401H4702.853931v-853.242518A173.632585 173.632585 0 0 1 4879.265808-127.975133h795.31623A173.632585 173.632585 0 0 1 5851.140194 42.731883V895.974401h-207.496059z"  horiz-adv-x="5851" />

    
    <glyph glyph-name="chengxinguanjia" unicode="&#59043;" d="M901.06368 896H122.92096C55.16288 896 0 841.82528 0 775.2704v-764.25216c0-66.6112 55.16288-120.78592 122.92096-120.78592h778.14272c67.82464 0 122.92608 54.23616 122.92608 120.78592V775.2704c0 66.55488-55.10144 120.7296-122.92608 120.7296z m45.35296-884.98176c0-24.576-20.33152-44.544-45.35296-44.544H122.92096c-24.96512 0-45.29152 19.968-45.29152 44.544V775.2704c0 24.51968 20.3264 44.48768 45.29152 44.48768h778.14272c24.96512 0 45.35296-19.968 45.35296-44.48768v-764.25216zM441.34912 673.0496a38.90176 38.90176 0 0 1-9.92768 28.77952c-7.13216 7.99744-17.05984 12.78464-29.184 13.60384l-3.44576 0.29184c-71.92576 3.50208-127.14496-13.66016-164.59264-51.14368-47.67232-47.69792-46.78144-110.57152-46.12608-122.01472v-294.23616c0-21.89312 18.18624-39.7568 40.47872-39.7568s40.47872 17.86368 40.47872 39.7568l-0.11776 298.0864c0 0.34816-2.0224 37.30432 23.06048 62.35136 1.36704 1.40288 2.85184 2.80064 4.45952 4.08576v-502.01088c0-22.24128 18.42688-40.28416 41.01632-40.28416s41.01632 18.0992 41.01632 40.28416V636.4416c6.35904-0.11776 12.12416-0.05632 22.58944-0.64 21.21216 0.11776 38.92736 16.4608 40.2944 37.248zM795.07968 353.06496c22.64576 0 41.01632 18.0992 41.01632 40.28416s-18.42688 40.28416-41.01632 40.28416H465.3056c-22.64576 0-41.07264-18.0992-41.07264-40.28416v-282.38336c0-22.24128 18.42688-40.28416 41.07264-40.28416h329.7792c22.64576 0 41.01632 18.0992 41.01632 40.28416v141.16352c0 22.24128-18.42688 40.28416-41.01632 40.28416h-210.06336c-22.64576 0-41.01632-18.0992-41.01632-40.28416s18.42688-40.28416 41.01632-40.28416l169.04704-0.52736-0.53248-60.01664-247.21408 0.52736 0.53248 201.23648h288.22528zM795.07968 574.85312H465.3056c-22.64576 0-41.07264-18.0992-41.07264-40.28416s18.42688-40.28416 41.07264-40.28416h329.7792c22.64576 0 41.01632 18.0992 41.01632 40.28416-0.00512 22.18496-18.37056 40.28416-41.02144 40.28416zM795.07968 716.01664H521.472c-22.64576 0-41.01632-18.0992-41.01632-40.28416s18.42688-40.27904 41.01632-40.27904h273.60768c22.64576 0 41.01632 18.0992 41.01632 40.27904 0 22.18496-18.36544 40.28416-41.01632 40.28416z"  horiz-adv-x="1024" />

    


  </font>
</defs>
</svg>
